<?xml version="1.0" encoding="UTF-8"?>
<svg id="Layer_2" data-name="Layer 2" xmlns="http://www.w3.org/2000/svg" viewBox="0 0 779.93 61.49">
  <defs>
    <style>
      .cls-1 {
        fill: #dcff71;
      }
    </style>
  </defs>
  <g id="Capa_1" data-name="Capa 1">
    <g>
      <path class="cls-1" d="M101.05,28.68c-2.19,0-4.26-.95-5.67-2.61l-14.91-17.44h16.73l17.13,20.06h-13.29Z"/>
      <path class="cls-1" d="M111.62,61.49v-10.74c0-6.91,2.47-13.62,6.96-18.87l19.87-23.25h17.31l-26.35,30.85c-2.24,2.61-3.47,5.94-3.47,9.38v12.63h-14.33Z"/>
      <path class="cls-1" d="M59.42,61.49v-21.16c0-1.4-1.14-2.54-2.54-2.54H16.71c-1.4,0-2.54,1.14-2.54,2.54v21.16H0V8.62h14.17v16.78c0,1.4,1.14,2.54,2.54,2.54h40.18c1.4,0,2.54-1.14,2.54-2.54V8.62h14.17v52.87h-14.17Z"/>
      <path class="cls-1" d="M514.92,8.62l-22.61,52.87h-21.29l-13.09-36.65c-.07-.17-.17-.33-.27-.44-.33-.39-.79-.62-1.33-.62s-1.01.23-1.33.62c-.1.12-.21.27-.27.44l-13.09,36.65h-21.29l-22.61-52.87h15.58l16.43,38.45c.25.69.88,1.15,1.63,1.15.36,0,.7-.12.99-.31.07-.05.13-.09.2-.17.2-.17.34-.39.44-.66l13.73-38.45h19.21l13.73,38.45c.1.27.25.49.44.66.07.07.13.12.2.17.29.2.64.31,1,.31.73,0,1.37-.46,1.61-1.15l16.43-38.45h15.58Z"/>
      <path class="cls-1" d="M162.66,61.49V8.62h58.49c8.32,0,15.1,6.77,15.1,15.1v3.03c0,8.32-6.77,15.1-15.1,15.1h-40.87c-1.9,0-3.45,1.55-3.45,3.45v16.19h-14.16ZM176.83,29.46c0,1.4,1.14,2.53,2.55,2.53h35.84c1.12,0,2.24-.28,3.24-.81,1.98-1.09,3.3-3.07,3.53-5.3l.02-.21c.01-.16.02-.31.02-.48,0-.14-.01-.29-.02-.43v-.17c-.25-2.24-1.56-4.22-3.54-5.3-.97-.53-2.1-.81-3.25-.81h-38.39v10.98Z"/>
      <path class="cls-1" d="M571.24,61.49l-2.8-7.06c-.51-1.32-1.8-2.21-3.22-2.21h-38.77c-1.42,0-2.71.89-3.22,2.22l-2.78,7.06h-15.53l22.55-52.87h36.74l22.59,52.87h-15.55ZM529.1,39.56c-.25.63-.18,1.35.2,1.91.38.56,1.01.9,1.69.9h29.67c.69,0,1.32-.34,1.7-.9.38-.56.46-1.28.2-1.91l-8.34-21.08h-16.8l-8.33,21.08Z"/>
      <path class="cls-1" d="M243.14,61.49V8.62h68.45v9.85h-54.28v8.53c0,1.4,1.14,2.54,2.55,2.54h51.74v9.85h-51.74c-1.4,0-2.55,1.14-2.55,2.53v8.86h54.28v10.69h-68.45Z"/>
      <path class="cls-1" d="M674.65,61.49V8.62h68.44v9.85h-54.28v8.54c0,1.4,1.14,2.54,2.54,2.54h51.74v9.85h-51.74c-1.4,0-2.54,1.14-2.54,2.54v8.85h54.28v10.69h-68.44Z"/>
      <path class="cls-1" d="M378.89,61.49l-14.14-15.96c-2.06-2.34-5.05-3.68-8.19-3.68h-18.83c-1.36,0-2.48,1.11-2.48,2.48v17.16h-14.17V8.62h59.6c7.98,0,14.48,6.5,14.48,14.48v1.32c0,3.86-1.5,7.49-4.23,10.24-2.74,2.74-6.38,4.24-10.25,4.24h-.46l-.11,5.24,14.24,17.34h-15.47ZM335.25,29.52c0,1.37,1.11,2.48,2.48,2.48h35.92c2.09,0,4.04-.94,5.34-2.57,1.28-1.6,1.75-3.68,1.28-5.7-.69-3.04-3.56-5.24-6.81-5.24h-38.21v11.04Z"/>
      <path class="cls-1" d="M651.49,61.49l-14.14-15.96c-2.06-2.34-5.05-3.68-8.19-3.68h-18.83c-1.36,0-2.48,1.11-2.48,2.48v17.16h-14.17V8.62h59.59c7.99,0,14.48,6.5,14.48,14.48v1.32c0,3.86-1.5,7.49-4.23,10.24-2.74,2.74-6.38,4.24-10.25,4.24h-.46l-.11,5.24,14.24,17.34h-15.47ZM607.85,29.52c0,1.37,1.11,2.48,2.48,2.48h35.92c2.09,0,4.04-.94,5.34-2.57,1.28-1.6,1.75-3.68,1.28-5.7-.69-3.04-3.56-5.24-6.81-5.24h-38.21v11.04Z"/>
      <g>
        <path class="cls-1" d="M772.88,10.11v-.75s.08,0,.11,0c.29-.03.57-.11.82-.23.12-.06.24-.13.36-.21.12-.08.23-.18.33-.28.46-.46.74-1.08.74-1.77h0c0-.13,0-.25-.03-.37-.13-.94-.79-1.72-1.67-2.02,0,0-.01,0-.02,0-.25-.08-.52-.13-.8-.13h-9.51v8.69h2.44v-2.84c0-.18.15-.33.33-.33h3.03c.48,0,.95.21,1.27.57l2.3,2.6h2.69l-2.38-2.9ZM771.76,8.09h-5.79c-.18,0-.33-.15-.33-.33v-1.7h6.09c.48,0,.92.32,1.03.79.15.66-.35,1.25-1,1.25Z"/>
        <path class="cls-1" d="M774.74,17.25h-11.41c-2.87,0-5.2-2.33-5.2-5.2v-6.85c0-2.87,2.33-5.2,5.2-5.2h11.41c2.87,0,5.2,2.33,5.2,5.2v6.85c0,2.87-2.33,5.2-5.2,5.2ZM763.33,2.51c-1.48,0-2.69,1.21-2.69,2.69v6.85c0,1.49,1.21,2.69,2.69,2.69h11.41c1.48,0,2.69-1.21,2.69-2.69v-6.85c0-1.49-1.21-2.69-2.69-2.69h-11.41Z"/>
      </g>
    </g>
  </g>
</svg>